[Header]
FileType HTR
DataType HTRS
FileVersion 1
NumSegments 22
NumFrames 4
DataFrameRate 24
EulerRotationOrder ZYX
CalibrationUnits mm
RotationUnits Degrees
GlobalAxisofGravity Y
BoneLengthAxis Y
ScaleFactor 1.0
[SegmentNames&Hierarchy]
reference	GLOBAL
Hips	reference
Spine	Hips
Spine1	Spine
Neck	Spine1
Head	Neck
LeftShoulder	Spine1
LeftArm	LeftShoulder
LeftForeArm	LeftArm
LeftHand	LeftForeArm
RightShoulder	Spine1
RightArm	RightShoulder
RightForeArm	RightArm
RightHand	RightForeArm
LeftUpLeg	Hips
LeftLeg	LeftUpLeg
LeftFoot	LeftLeg
LeftToeBase	LeftFoot
RightUpLeg	Hips
RightLeg	RightUpLeg
RightFoot	RightLeg
RightToeBase	RightFoot
[BasePosition]
reference	0	0	0	0	0	0	1
Hips	0	0	0	0	0	0	1
Spine	0	0	0	0	-0	90	1
Spine1	0	0	0	0	0	0	1
Neck	0	0	0	-7.352430803	-7.352430803	90	1
Head	0	0	0	0	-0	90	1
LeftShoulder	0	0	0	0	0	0	1
LeftArm	0	0	0	0	0	0	1
LeftForeArm	0	0	0	0	0	0	1
LeftHand	0	0	0	0	0	0	1
RightShoulder	0	0	0	0	-0	180	1
RightArm	0	0	0	0	-0	180	1
RightForeArm	0	0	0	0	-0	180	1
RightHand	0	0	0	0	-0	180	1
LeftUpLeg	0	0	0	0	-0	-90	1
LeftLeg	0	0	0	0	-0	-90	1
LeftFoot	0	0	0	66.57150701	-66.57150701	-90	1
LeftToeBase	0	0	0	0	-90	0	1
RightUpLeg	0	0	0	0	-0	-90	1
RightLeg	0	0	0	0	-0	-90	1
RightFoot	0	0	0	66.57150701	-66.57150701	-90	1
RightToeBase	0	0	0	0	-90	0	1
[reference]
47	0	0	0	0	-0	0	1.0
48	0	0	0	0	-0	0	1.0
49	0	0	0	0	-0	0	1.0
50	0	0	0	0	-0	0	1.0
[Hips]
47	2.536741734	8.558093071	3.694573402	-1.047924995	-146.9490356	4.107572556	1.0
48	2.67095232	8.529255867	3.865796089	0.3630060852	-146.6837769	3.532787085	1.0
49	2.807979822	8.507241249	4.022061348	0.8624725342	-147.6263123	3.634262085	1.0
50	2.963401079	8.48548317	4.187757492	0.4328458607	-148.4910583	3.608830929	1.0
[Spine]
47	0	0.7478299737	0	-3.899153709	0.7282586098	-89.89352417	1.0
48	0	0.7478299737	0	-5.781046867	0.3125461042	-90.19335938	1.0
49	0	0.7478299737	0	-6.840455055	0.8504815102	-89.70715332	1.0
50	0	0.7478299737	0	-6.24354744	1.15882349	-89.38334656	1.0
[Spine1]
47	0	2.049309969	0	3.659920216	0.2545397282	-0.1371009052	1.0
48	0	2.049309969	0	5.478237629	0.1309392154	-0.7541898489	1.0
49	0	2.049309969	0	6.076973438	0.3554443717	-1.507893682	1.0
50	0	2.049309969	0	5.156795979	0.4490610361	-1.719104528	1.0
[Neck]
47	0	2.231709957	0	-1.58357048	17.62988472	-82.05599976	1.0
48	0	2.231709957	0	-3.551279783	17.80970192	-81.82990265	1.0
49	0	2.231709957	0	-3.520897627	17.80299377	-81.38134003	1.0
50	0	2.231709957	0	-1.654256225	17.99953842	-81.59775543	1.0
[Head]
47	0	1.413589954	0.1823999882	-9.693430901	11.19704533	-98.63373566	1.0
48	0	1.413589954	0.1823999882	-8.615207672	11.39557743	-98.87194061	1.0
49	0	1.413589954	0.1823999882	-8.312175751	11.46403122	-99.36532593	1.0
50	0	1.413589954	0.1823999882	-9.353794098	11.67234135	-99.68571472	1.0
[LeftShoulder]
47	0.3649300039	1.825889945	-0.04271000251	-14.51075268	-9.350743294	10.07178974	1.0
48	0.3649300039	1.825889945	-0.04271000251	-15.48805714	-10.1559124	11.04407787	1.0
49	0.3649300039	1.825889945	-0.04271000251	-15.86819077	-10.53715229	11.0445261	1.0
50	0.3649300039	1.825889945	-0.04271000251	-15.04892731	-10.50271225	9.734301567	1.0
[LeftArm]
47	1.24003005	0	0	63.91882706	-19.86523247	-71.71575165	1.0
48	1.24003005	0	0	62.14619446	-22.11974907	-70.85394287	1.0
49	1.24003005	0	0	63.0689621	-21.10508156	-71.35923004	1.0
50	1.24003005	0	0	64.31518555	-17.87973213	-72.32043457	1.0
[LeftForeArm]
47	2.847419977	0	0	155.5799561	-79.15473938	-161.0996399	1.0
48	2.847419977	0	0	148.3369598	-76.3664093	-154.8644409	1.0
49	2.847419977	0	0	135.2871552	-77.96186829	-143.4940491	1.0
50	2.847419977	0	0	108.0474625	-81.4908905	-116.1435547	1.0
[LeftHand]
47	2.258270025	0	0	-1.327962518	-12.80709934	-2.729476213	1.0
48	2.258270025	0	0	0.4780096114	-12.18090057	-4.692655563	1.0
49	2.258270025	0	0	0.1089819968	-11.81006813	-4.579972267	1.0
50	2.258270025	0	0	0.1208344772	-11.16306496	-3.266602278	1.0
[RightShoulder]
47	-0.3646599948	1.825889945	-0.04271000251	-7.58894062	10.1531086	173.5334015	1.0
48	-0.3646599948	1.825889945	-0.04271000251	-8.038341522	9.193145752	172.0455627	1.0
49	-0.3646599948	1.825889945	-0.04271000251	-7.89200449	9.035001755	171.8677673	1.0
50	-0.3646599948	1.825889945	-0.04271000251	-6.891930103	9.451500893	172.2024078	1.0
[RightArm]
47	-1.24003005	0	0	36.69626236	-6.763799667	-116.9532928	1.0
48	-1.24003005	0	0	36.2376709	-6.66718483	-117.4819489	1.0
49	-1.24003005	0	0	36.60338593	-6.957616329	-117.5155945	1.0
50	-1.24003005	0	0	37.49742126	-6.748641968	-117.3003311	1.0
[RightForeArm]
47	-2.847419977	0	0	23.64082718	22.56910324	202.7555542	1.0
48	-2.847419977	0	0	24.39493942	21.53401947	203.6268768	1.0
49	-2.847419977	0	0	24.02088165	21.36050987	203.4129333	1.0
50	-2.847419977	0	0	23.26415825	22.77731514	203.0017242	1.0
[RightHand]
47	-2.258270025	0	0	18.37129593	12.66648102	173.9647827	1.0
48	-2.258270025	0	0	19.26697922	12.03027344	174.5747681	1.0
49	-2.258270025	0	0	19.00686264	11.93030167	174.8519745	1.0
50	-2.258270025	0	0	18.09114838	12.16636562	175.5031586	1.0
[LeftUpLeg]
47	0.9119900465	0	0	-0.01493480802	-1.464057207	89.43191528	1.0
48	0.9119900465	0	0	-4.141700745	1.548088193	89.58998108	1.0
49	0.9119900465	0	0	-6.258033276	2.075597525	89.78226471	1.0
50	0.9119900465	0	0	-8.149321556	-0.462803483	90.50784302	1.0
[LeftLeg]
47	0	-4.371409893	0	-1.323579431	5.728115082	87.25969696	1.0
48	0	-4.371409893	0	1.920379281	0.5646892786	86.17598724	1.0
49	0	-4.371409893	0	2.565263033	1.619159698	86.5821228	1.0
50	0	-4.371409893	0	4.020828247	5.87784481	86.5791626	1.0
[LeftFoot]
47	0	-3.918009996	0	69.50900269	59.50630569	120.7279053	1.0
48	0	-3.918009996	0	71.6570816	58.64797211	124.3264542	1.0
49	0	-3.918009996	0	70.95355988	59.06994629	121.9715042	1.0
50	0	-3.918009996	0	71.02291107	59.03751373	121.1021271	1.0
[LeftToeBase]
47	0	-0.5927900076	1.367989898	0	0	0	1.0
48	0	-0.5927900076	1.367989898	0	0	0	1.0
49	0	-0.5927900076	1.367989898	0	0	0	1.0
50	0	-0.5927900076	1.367989898	0	0	0	1.0
[RightUpLeg]
47	-0.9119900465	0	0	-6.032202244	-24.11618042	95.48666382	1.0
48	-0.9119900465	0	0	-2.126543045	-25.22283745	93.70223236	1.0
49	-0.9119900465	0	0	2.796628952	-23.67233276	92.70098877	1.0
50	-0.9119900465	0	0	8.043613434	-21.9398098	92.10479736	1.0
[RightLeg]
47	0	-4.371409893	0	39.67845917	-1.138997436	69.0958252	1.0
48	0	-4.371409893	0	37.59366226	0.6908588409	71.31523132	1.0
49	0	-4.371409893	0	31.20079613	-0.1555870175	74.86140442	1.0
50	0	-4.371409893	0	22.22566223	-2.819833755	78.23701477	1.0
[RightFoot]
47	0	-3.918009996	0	77.72809601	51.41901779	132.7735291	1.0
48	0	-3.918009996	0	79.79964447	48.69034195	134.4487152	1.0
49	0	-3.918009996	0	79.67190552	49.41562271	132.0417938	1.0
50	0	-3.918009996	0	79.34442902	56.29563141	130.9211121	1.0
[RightToeBase]
47	0	-0.5927900076	1.367989898	0	0	0	1.0
48	0	-0.5927900076	1.367989898	0	0	0	1.0
49	0	-0.5927900076	1.367989898	0	0	0	1.0
50	0	-0.5927900076	1.367989898	0	0	0	1.0
[EndOfFile]
